<?xml version="1.0" encoding="UTF-8" standalone="no"?>
<!DOCTYPE svg PUBLIC "-//W3C//DTD SVG 1.1//EN" "http://www.w3.org/Graphics/SVG/1.1/DTD/svg11.dtd">
<svg width="100%" height="100%" viewBox="0 0 40 40" version="1.1" xmlns="http://www.w3.org/2000/svg" xmlns:xlink="http://www.w3.org/1999/xlink" xml:space="preserve" xmlns:serif="http://www.serif.com/" style="fill-rule:evenodd;clip-rule:evenodd;stroke-linejoin:round;stroke-miterlimit:2;">
    <g transform="matrix(1,0,0,1,9,0)">
        <path d="M3,1C1.895,1 1,1.895 1,3L1,37C1,38.105 1.895,39 3,39L18.9,39C20.005,39 20.9,38.105 20.9,37L20.9,3C20.9,1.895 20.005,1 18.9,1L15.663,1L15.663,2L6.237,2L6.237,1L3,1Z" style="fill:url(#_Linear1);"/>
    </g>
    <g transform="matrix(1,0,0,1,9,0)">
        <path d="M8.509,35.675C8.135,35.675 7.832,35.977 7.832,36.351C7.832,36.724 8.135,37.027 8.509,37.027L8.509,35.675ZM13.463,37.027C13.837,37.027 14.14,36.724 14.14,36.351C14.14,35.977 13.837,35.675 13.463,35.675L13.463,37.027ZM0.4,29.414C0.4,29.788 0.703,30.09 1.076,30.09C1.45,30.09 1.753,29.788 1.753,29.414L0.4,29.414ZM1.753,32.387C1.753,32.013 1.45,31.711 1.076,31.711C0.703,31.711 0.4,32.013 0.4,32.387L1.753,32.387ZM20.219,7.613C20.219,7.987 20.522,8.289 20.895,8.289C21.269,8.289 21.572,7.987 21.572,7.613L20.219,7.613ZM21.572,10.586C21.572,10.212 21.269,9.91 20.895,9.91C20.522,9.91 20.219,10.212 20.219,10.586L21.572,10.586ZM18.48,38.647L3.492,38.647L3.492,40L18.48,40L18.48,38.647ZM3.492,1.353L6.527,1.353L6.527,0L3.492,0L3.492,1.353ZM5.85,1.692L7.203,1.692L7.203,0.676L5.85,0.676L5.85,1.692ZM7.493,3.335L14.479,3.335L14.479,1.982L7.493,1.982L7.493,3.335ZM6.527,1.353L15.445,1.353L15.445,0L6.527,0L6.527,1.353ZM15.445,1.353L18.48,1.353L18.48,0L15.445,0L15.445,1.353ZM16.122,1.692L16.122,0.676L14.769,0.676L14.769,1.692L16.122,1.692ZM8.509,37.027L13.463,37.027L13.463,35.675L8.509,35.675L8.509,37.027ZM1.753,29.414L1.753,3.092L0.4,3.092L0.4,29.414L1.753,29.414ZM1.753,36.908L1.753,32.387L0.4,32.387L0.4,36.908L1.753,36.908ZM20.219,3.092L20.219,7.613L21.572,7.613L21.572,3.092L20.219,3.092ZM20.219,10.586L20.219,36.908L21.572,36.908L21.572,10.586L20.219,10.586ZM14.479,3.335C15.386,3.335 16.122,2.599 16.122,1.692L14.769,1.692C14.769,1.852 14.639,1.982 14.479,1.982L14.479,3.335ZM3.492,38.647C2.531,38.647 1.753,37.869 1.753,36.908L0.4,36.908C0.4,38.616 1.784,40 3.492,40L3.492,38.647ZM18.48,40C20.188,40 21.572,38.616 21.572,36.908L20.219,36.908C20.219,37.869 19.441,38.647 18.48,38.647L18.48,40ZM18.48,1.353C19.441,1.353 20.219,2.131 20.219,3.092L21.572,3.092C21.572,1.384 20.188,0 18.48,0L18.48,1.353ZM5.85,1.692C5.85,2.599 6.586,3.335 7.493,3.335L7.493,1.982C7.333,1.982 7.203,1.852 7.203,1.692L5.85,1.692ZM3.492,0C1.784,0 0.4,1.384 0.4,3.092L1.753,3.092C1.753,2.131 2.531,1.353 3.492,1.353L3.492,0Z" style="fill:rgb(249,178,0);fill-rule:nonzero;"/>
    </g>
    <defs>
        <linearGradient id="_Linear1" x1="0" y1="0" x2="1" y2="0" gradientUnits="userSpaceOnUse" gradientTransform="matrix(28.5741,16.5237,-16.5237,28.5741,2.12767,1)"><stop offset="0" style="stop-color:rgb(255,219,110);stop-opacity:0.15"/><stop offset="0.26" style="stop-color:rgb(255,219,110);stop-opacity:0.15"/><stop offset="1" style="stop-color:rgb(255,188,94);stop-opacity:0.15"/></linearGradient>
    </defs>
</svg>
